<svg width="48" height="48" viewBox="0 0 48 48" fill="none" xmlns="http://www.w3.org/2000/svg">
<path fill-rule="evenodd" clip-rule="evenodd" d="M34 9H14C11.2386 9 9 11.2386 9 14V29C9 31.7614 11.2386 34 14 34C15.8474 34 17.345 35.4976 17.345 37.345V38.0715C17.345 38.4278 17.5492 38.7525 17.8703 38.9069C18.1915 39.0612 18.5726 39.0178 18.8508 38.7952L23.7494 34.8765C24.4586 34.3091 25.3398 34 26.2481 34H34C36.7614 34 39 31.7614 39 29V14C39 11.2386 36.7614 9 34 9Z" fill="#BFCEDB" stroke="#BFCEDB" stroke-width="1.5" stroke-linecap="round" stroke-linejoin="round"/>
<path fill-rule="evenodd" clip-rule="evenodd" d="M22.5047 15.7626C22.7854 15.1937 23.3649 14.8334 23.9993 14.8334C24.6338 14.8334 25.2132 15.1937 25.494 15.7626L26.3419 17.4817C26.5847 17.9737 27.054 18.3147 27.5969 18.3936L29.4937 18.6693C30.1214 18.7606 30.6428 19.2002 30.8389 19.8034C31.035 20.4066 30.8717 21.0688 30.4177 21.5117L29.0445 22.851C28.652 23.2339 28.4729 23.7854 28.5656 24.3259L28.8896 26.2147C28.9968 26.8398 28.7398 27.4717 28.2266 27.8445C27.7135 28.2174 27.0332 28.2667 26.4717 27.9717L24.7747 27.0798C24.2893 26.8246 23.7094 26.8246 23.224 27.0798L21.527 27.9717C20.9655 28.2667 20.2851 28.2175 19.772 27.8446C19.2588 27.4717 19.0018 26.8399 19.109 26.2147L19.433 24.3259C19.5257 23.7854 19.3467 23.2339 18.9541 22.851L17.581 21.5117C17.127 21.0688 16.9637 20.4066 17.1598 19.8034C17.3559 19.2002 17.8773 18.7606 18.505 18.6694L20.4018 18.3937C20.9448 18.3148 21.4141 17.9737 21.6568 17.4817L22.5047 15.7626Z" fill="#003C6E" stroke="#003C6E" stroke-width="1.5" stroke-linecap="round" stroke-linejoin="round"/>
</svg>
