<svg width="20" height="20" viewBox="0 0 20 20" fill="none" xmlns="http://www.w3.org/2000/svg">
<path fill-rule="evenodd" clip-rule="evenodd" d="M7.48104 17.7442C7.77617 17.7052 8.07429 17.7852 8.30939 17.9663L9.39284 18.7977C9.75099 19.0728 10.2492 19.0728 10.6063 18.7977L11.7308 17.9343C11.9409 17.7732 12.206 17.7022 12.4681 17.7372L13.8747 17.9223C14.3219 17.9813 14.7531 17.7322 14.9261 17.315L15.4674 16.0065C15.5684 15.7614 15.7625 15.5673 16.0076 15.4663L17.3161 14.925C17.7333 14.753 17.9824 14.3208 17.9234 13.8736L17.7453 12.518C17.7063 12.2229 17.7863 11.9248 17.9674 11.6897L18.7988 10.6062C19.0739 10.2481 19.0739 9.74989 18.7988 9.39274L17.9354 8.26827C17.7743 8.05819 17.7033 7.79308 17.7383 7.53097L17.9234 6.12438C17.9824 5.67719 17.7333 5.24601 17.3161 5.07294L16.0076 4.53172C15.7625 4.43068 15.5684 4.23659 15.4674 3.99149L14.9261 2.68295C14.7541 2.26577 14.3219 2.01667 13.8747 2.07569L12.4681 2.26077C12.206 2.29679 11.9409 2.22576 11.7318 2.06569L10.6073 1.20233C10.2492 0.927216 9.75099 0.927216 9.39384 1.20233L8.26937 2.06569C8.05929 2.22576 7.79418 2.29679 7.53207 2.26277L6.12548 2.0777C5.67829 2.01867 5.24711 2.26777 5.07404 2.68495L4.53382 3.99349C4.43177 4.23759 4.23769 4.43168 3.99359 4.53372L2.68505 5.07394C2.26787 5.24701 2.01877 5.67819 2.07779 6.12538L2.26287 7.53197C2.29689 7.79408 2.22586 8.05919 2.06579 8.26827L1.20243 9.39274C0.927315 9.75089 0.927315 10.2491 1.20243 10.6062L2.06579 11.7307C2.22686 11.9408 2.29789 12.2059 2.26287 12.468L2.07779 13.8746C2.01877 14.3218 2.26787 14.753 2.68505 14.926L3.99359 15.4673C4.23869 15.5683 4.43278 15.7624 4.53382 16.0075L5.07504 17.316C5.24711 17.7332 5.67929 17.9823 6.12648 17.9233L7.48104 17.7442Z" fill="#003C6E"/>
<path d="M7.48104 17.7442C7.77617 17.7052 8.07429 17.7852 8.30939 17.9663L9.39284 18.7977C9.75099 19.0728 10.2492 19.0728 10.6063 18.7977L11.7308 17.9343C11.9409 17.7732 12.206 17.7022 12.4681 17.7372L13.8747 17.9223C14.3219 17.9813 14.7531 17.7322 14.9261 17.315L15.4674 16.0065C15.5684 15.7614 15.7625 15.5673 16.0076 15.4663L17.3161 14.925C17.7333 14.753 17.9824 14.3208 17.9234 13.8736L17.7453 12.518C17.7063 12.2229 17.7863 11.9248 17.9674 11.6897L18.7988 10.6062C19.0739 10.2481 19.0739 9.74989 18.7988 9.39274L17.9354 8.26827C17.7743 8.05819 17.7033 7.79308 17.7383 7.53097L17.9234 6.12438C17.9824 5.67719 17.7333 5.24601 17.3161 5.07294L16.0076 4.53172C15.7625 4.43067 15.5684 4.23659 15.4674 3.99149L14.9261 2.68295C14.7541 2.26577 14.3219 2.01667 13.8747 2.07569L12.4681 2.26077C12.206 2.29679 11.9409 2.22576 11.7318 2.06569L10.6073 1.20233C10.2492 0.927216 9.75099 0.927216 9.39384 1.20233L8.26937 2.06569C8.05929 2.22576 7.79418 2.29679 7.53207 2.26277L6.12548 2.0777C5.67829 2.01867 5.24711 2.26777 5.07404 2.68495L4.53382 3.99349C4.43177 4.23759 4.23769 4.43168 3.99359 4.53372L2.68505 5.07394C2.26787 5.24702 2.01877 5.67819 2.07779 6.12538L2.26287 7.53197C2.29689 7.79408 2.22586 8.05919 2.06579 8.26827L1.20243 9.39274C0.927315 9.75089 0.927315 10.2491 1.20243 10.6062L2.06579 11.7307C2.22686 11.9408 2.29789 12.2059 2.26287 12.468L2.07779 13.8746C2.01877 14.3218 2.26787 14.753 2.68505 14.926L3.99359 15.4673C4.23869 15.5683 4.43278 15.7624 4.53382 16.0075L5.07504 17.316C5.24711 17.7332 5.67929 17.9823 6.12648 17.9233L7.48104 17.7442" stroke="#003C6E" stroke-width="1.5" stroke-linecap="round" stroke-linejoin="round"/>
<path d="M12.7996 8.60041L9.29714 12.1029L7.19727 10.002" stroke="white" stroke-width="1.5" stroke-linecap="round" stroke-linejoin="round"/>
</svg>
