<svg width="48" height="48" viewBox="0 0 48 48" fill="none" xmlns="http://www.w3.org/2000/svg">
<g opacity="0.25">
<path fill-rule="evenodd" clip-rule="evenodd" d="M19.1933 27.645C13.27 28.425 9 30.6 9 33.1667C9 36.3884 15.715 39 24 39C32.285 39 39 36.3884 39 33.1667C39 30.6 34.73 28.425 28.8067 27.645" fill="#003C6E"/>
<path d="M19.1933 27.645C13.27 28.425 9 30.6 9 33.1667C9 36.3884 15.715 39 24 39C32.285 39 39 36.3884 39 33.1667C39 30.6 34.73 28.425 28.8067 27.645" stroke="#003C6E" stroke-width="1.5" stroke-linecap="round" stroke-linejoin="round"/>
</g>
<path fill-rule="evenodd" clip-rule="evenodd" d="M34 17.055C34 11.6867 29.5233 7.33334 24 7.33334C18.4767 7.33334 14 11.6867 14 17.055C14 24.3467 24 32.3333 24 32.3333C24 32.3333 34 24.3467 34 17.055Z" fill="#003C6E" stroke="#003C6E" stroke-width="1.5" stroke-linecap="round" stroke-linejoin="round"/>
<path fill-rule="evenodd" clip-rule="evenodd" d="M26.3564 14.9763C27.6581 16.2781 27.6581 18.3886 26.3564 19.6904C25.0546 20.9921 22.9441 20.9921 21.6423 19.6904C20.3406 18.3886 20.3406 16.2781 21.6423 14.9763C22.9441 13.6746 25.0546 13.6746 26.3564 14.9763Z" fill="white"/>
<path d="M26.3564 14.9763C27.6581 16.2781 27.6581 18.3886 26.3564 19.6904C25.0546 20.9921 22.9441 20.9921 21.6423 19.6904C20.3406 18.3886 20.3406 16.2781 21.6423 14.9763C22.9441 13.6746 25.0546 13.6746 26.3564 14.9763" stroke="white" stroke-width="1.5" stroke-linecap="round" stroke-linejoin="round"/>
</svg>
