<svg width="24" height="24" viewBox="0 0 24 24" fill="none" xmlns="http://www.w3.org/2000/svg">
<path fill-rule="evenodd" clip-rule="evenodd" d="M14 7.00001L10.707 3.70701C10.316 3.31601 9.683 3.31601 9.293 3.70701L6 7.00001" fill="#003C6E"/>
<path d="M14 7.00001L10.707 3.70701C10.316 3.31601 9.683 3.31601 9.293 3.70701L6 7.00001" stroke="#003C6E" stroke-width="1.5" stroke-linecap="round" stroke-linejoin="round"/>
<path fill-rule="evenodd" clip-rule="evenodd" d="M11 6L13.293 3.70701C13.684 3.31601 14.317 3.31601 14.707 3.70701L18 7.00001" fill="#003C6E"/>
<path d="M11 6L13.293 3.70701C13.684 3.31601 14.317 3.31601 14.707 3.70701L18 7.00001" stroke="#003C6E" stroke-width="1.5" stroke-linecap="round" stroke-linejoin="round"/>
<path fill-rule="evenodd" clip-rule="evenodd" d="M19 21H5C3.895 21 3 20.105 3 19V9C3 7.895 3.895 7 5 7H19C20.105 7 21 7.895 21 9V19C21 20.105 20.105 21 19 21Z" fill="#BFCEDB" stroke="#BFCEDB" stroke-width="1.5" stroke-linecap="round" stroke-linejoin="round"/>
<path fill-rule="evenodd" clip-rule="evenodd" d="M21 12H16.419C15.635 12 15 12.635 15 13.419V14.581C15 15.365 15.635 16 16.419 16H21" fill="#003C6E"/>
<path d="M21 12H16.419C15.635 12 15 12.635 15 13.419V14.581C15 15.365 15.635 16 16.419 16H21V12Z" stroke="#003C6E" stroke-width="1.5" stroke-linecap="round" stroke-linejoin="round"/>
</svg>
