<svg width="48" height="48" viewBox="0 0 48 48" fill="none" xmlns="http://www.w3.org/2000/svg">
<path fill-rule="evenodd" clip-rule="evenodd" d="M19.9764 35.6667L22.8215 38.5118C23.4724 39.1627 24.5276 39.1627 25.1785 38.5118L28.0236 35.6667H34C36.7614 35.6667 39 33.4281 39 30.6667V14C39 11.2386 36.7614 9 34 9H14C11.2386 9 9 11.2386 9 14V30.6667C9 33.4281 11.2386 35.6667 14 35.6667H19.9764Z" fill="#BFCEDB" stroke="#BFCEDB" stroke-width="1.5" stroke-linecap="round" stroke-linejoin="round"/>
<path fill-rule="evenodd" clip-rule="evenodd" d="M15.668 19V25.6667C15.668 27.5076 17.1604 29 19.0013 29H29.0013C30.8423 29 32.3346 27.5076 32.3346 25.6667V19C32.3346 17.1591 30.8423 15.6667 29.0013 15.6667H19.0013C17.1604 15.6667 15.668 17.1591 15.668 19Z" fill="#003C6E" stroke="#003C6E" stroke-width="1.5" stroke-linecap="round" stroke-linejoin="round"/>
<path d="M18 19L23.2593 22.1597C23.726 22.3913 24.2741 22.3913 24.7408 22.1597L30 19" stroke="#BFCEDB" stroke-width="1.5" stroke-linecap="round" stroke-linejoin="round"/>
</svg>
