<svg width="48" height="48" viewBox="0 0 48 48" fill="none" xmlns="http://www.w3.org/2000/svg">
<g opacity="0.25">
<path fill-rule="evenodd" clip-rule="evenodd" d="M15.8395 36.5819C22.291 40.7744 30.8665 39.4215 35.7139 33.4465C40.5614 27.4714 40.1175 18.8012 34.6851 13.3525C29.2527 7.9038 20.5839 7.43386 14.5943 12.2634C8.60474 17.0929 7.22615 25.6643 11.3993 32.1284" fill="#003C6E"/>
<path d="M15.8395 36.5819C22.291 40.7744 30.8665 39.4215 35.7139 33.4465C40.5614 27.4714 40.1175 18.8012 34.6851 13.3525C29.2527 7.9038 20.5839 7.43386 14.5943 12.2634C8.60474 17.0929 7.22615 25.6643 11.3993 32.1284" stroke="#003C6E" stroke-width="1.5" stroke-linecap="round" stroke-linejoin="round"/>
</g>
<path fill-rule="evenodd" clip-rule="evenodd" d="M22.7964 21.5587L27.7551 16.6C27.7864 16.5686 27.8003 16.5239 27.7923 16.4803C27.7843 16.4367 27.7554 16.3998 27.7151 16.3816C24.7884 15.1234 21.3914 15.7621 19.1215 17.9973C16.9466 20.1232 16.2476 23.3405 17.3441 26.1773L9.91432 33.6121C8.68741 34.8405 8.68741 36.8305 9.91432 38.0589C11.1427 39.2859 13.1328 39.2859 14.3612 38.0589L21.851 30.5692C24.7691 31.655 28.0538 30.8899 30.1916 28.6262C32.3295 26.3625 32.9058 23.0395 31.655 20.1882C31.6358 20.1493 31.5991 20.1218 31.5564 20.1142C31.5136 20.1067 31.4698 20.1199 31.4383 20.1498L26.3545 25.1152L24.5771 23.3328L22.7964 21.5587Z" fill="#003C6E" stroke="#003C6E" stroke-width="1.5" stroke-linecap="round" stroke-linejoin="round"/>
</svg>
