<svg width="48" height="48" viewBox="0 0 48 48" fill="none" xmlns="http://www.w3.org/2000/svg">
<path fill-rule="evenodd" clip-rule="evenodd" d="M24.0027 8.99377C25.8451 8.99377 27.3374 10.4861 27.3374 12.3285C27.3374 14.1709 25.8451 15.6632 24.0027 15.6632C22.1603 15.6632 20.668 14.1709 20.668 12.3285C20.668 10.4861 22.1603 8.99377 24.0027 8.99377Z" fill="#003C6E"/>
<path d="M24.0027 8.99377C25.8451 8.99377 27.3374 10.4861 27.3374 12.3285C27.3374 14.1709 25.8451 15.6632 24.0027 15.6632C22.1603 15.6632 20.668 14.1709 20.668 12.3285C20.668 10.4861 22.1603 8.99377 24.0027 8.99377" stroke="#003C6E" stroke-width="1.5" stroke-linecap="round" stroke-linejoin="round"/>
<path fill-rule="evenodd" clip-rule="evenodd" d="M21.6297 14.6678L13.9648 22.3326L21.6297 14.6678Z" fill="#003C6E"/>
<path d="M21.6297 14.6678L13.9648 22.3326" stroke="#003C6E" stroke-width="1.5" stroke-linecap="round" stroke-linejoin="round"/>
<path fill-rule="evenodd" clip-rule="evenodd" d="M34.0065 22.2993L26.375 14.6678L34.0065 22.2993Z" fill="#003C6E"/>
<path d="M34.0065 22.2993L26.375 14.6678" stroke="#003C6E" stroke-width="1.5" stroke-linecap="round" stroke-linejoin="round"/>
<path fill-rule="evenodd" clip-rule="evenodd" d="M35.6739 39.0063H12.3308C10.4884 39.0063 8.99609 37.514 8.99609 35.6715V25.6674C8.99609 23.8249 10.4884 22.3326 12.3308 22.3326H35.6739C37.5163 22.3326 39.0086 23.8249 39.0086 25.6674V35.6732C39.0086 37.514 37.5163 39.0063 35.6739 39.0063Z" fill="#BFCEDB" stroke="#BFCEDB" stroke-width="1.5" stroke-linecap="round" stroke-linejoin="round"/>
</svg>
