<svg width="48" height="48" viewBox="0 0 48 48" fill="none" xmlns="http://www.w3.org/2000/svg">
<path fill-rule="evenodd" clip-rule="evenodd" d="M27.3333 37.3333L24 40.6667L20.6667 37.3333H14C11.2383 37.3333 9 35.095 9 32.3333V12.3333C9 9.57168 11.2383 7.33334 14 7.33334H34C36.7617 7.33334 39 9.57168 39 12.3333V32.3333C39 35.095 36.7617 37.3333 34 37.3333H27.3333Z" fill="#BFCEDB" stroke="#BFCEDB" stroke-width="1.5" stroke-linecap="round" stroke-linejoin="round"/>
<mask id="path-3-inside-1_356_1415" fill="white">
<path fill-rule="evenodd" clip-rule="evenodd" d="M20.0867 26.2434C23.7251 29.8834 28.3351 32.2034 31.0767 29.4734L31.7417 28.8084C32.6267 27.9234 32.5034 26.4584 31.4767 25.7434C30.8284 25.2917 30.1317 24.8067 29.3617 24.265C28.5651 23.705 27.4717 23.79 26.7801 24.4767L26.0284 25.2234C25.0967 24.6334 24.1751 23.875 23.3184 23.02L23.3151 23.0167C22.4601 22.1617 21.7017 21.2384 21.1117 20.3067L21.8584 19.555C22.5451 18.8634 22.6317 17.7684 22.0684 16.9717C21.5267 16.2034 21.0417 15.5084 20.5934 14.8617C19.8801 13.8317 18.4134 13.7067 17.5267 14.5934L16.8617 15.2584C14.1334 18 16.4517 22.6067 20.0901 26.2484"/>
</mask>
<path fill-rule="evenodd" clip-rule="evenodd" d="M20.0867 26.2434C23.7251 29.8834 28.3351 32.2034 31.0767 29.4734L31.7417 28.8084C32.6267 27.9234 32.5034 26.4584 31.4767 25.7434C30.8284 25.2917 30.1317 24.8067 29.3617 24.265C28.5651 23.705 27.4717 23.79 26.7801 24.4767L26.0284 25.2234C25.0967 24.6334 24.1751 23.875 23.3184 23.02L23.3151 23.0167C22.4601 22.1617 21.7017 21.2384 21.1117 20.3067L21.8584 19.555C22.5451 18.8634 22.6317 17.7684 22.0684 16.9717C21.5267 16.2034 21.0417 15.5084 20.5934 14.8617C19.8801 13.8317 18.4134 13.7067 17.5267 14.5934L16.8617 15.2584C14.1334 18 16.4517 22.6067 20.0901 26.2484" fill="#003C6E"/>
<path d="M21.1476 25.1829C20.562 24.597 19.6122 24.5968 19.0263 25.1825C18.4404 25.7681 18.4402 26.7179 19.0258 27.3038L21.1476 25.1829ZM31.0767 29.4734L32.1351 30.5363L32.1374 30.534L31.0767 29.4734ZM31.4767 25.7434L30.6193 26.9741L30.6195 26.9743L31.4767 25.7434ZM29.3617 24.265L30.2248 23.0382L30.2243 23.0379L29.3617 24.265ZM26.7801 24.4767L25.7233 23.4122L25.7229 23.4125L26.7801 24.4767ZM26.0284 25.2234L25.2259 26.4906C25.8172 26.8651 26.5889 26.7808 27.0855 26.2875L26.0284 25.2234ZM23.3184 23.02L22.2577 24.0807L22.2588 24.0817L23.3184 23.02ZM21.1117 20.3067L20.0475 19.2496C19.5543 19.7462 19.47 20.5179 19.8445 21.1092L21.1117 20.3067ZM21.8584 19.555L22.9226 20.6121L22.9229 20.6118L21.8584 19.555ZM22.0684 16.9717L20.8424 17.836L20.8437 17.8377L22.0684 16.9717ZM20.5934 14.8617L19.3603 15.7157L19.3607 15.7163L20.5934 14.8617ZM16.8617 15.2584L15.8011 14.1977L15.7985 14.2003L16.8617 15.2584ZM19.0289 27.3085C19.6144 27.8946 20.5642 27.895 21.1502 27.3095C21.7363 26.724 21.7367 25.7742 21.1512 25.1882L19.0289 27.3085ZM19.0258 27.3038C20.932 29.2108 23.1781 30.8644 25.4152 31.6603C27.6795 32.4659 30.2063 32.4569 32.1351 30.5363L30.0183 28.4104C29.2055 29.2198 28.0565 29.4158 26.4208 28.8339C24.7579 28.2423 22.8798 26.9159 21.1476 25.1829L19.0258 27.3038ZM32.1374 30.534L32.8024 29.869L30.6811 27.7477L30.0161 28.4127L32.1374 30.534ZM32.8024 29.869C34.3413 28.3301 34.1349 25.7667 32.334 24.5124L30.6195 26.9743C30.8719 27.15 30.9122 27.5166 30.6811 27.7477L32.8024 29.869ZM32.3342 24.5126C31.6852 24.0605 30.9915 23.5775 30.2248 23.0382L28.4987 25.4919C29.272 26.0359 29.9716 26.5229 30.6193 26.9741L32.3342 24.5126ZM30.2243 23.0379C28.8415 22.0658 26.9382 22.2061 25.7233 23.4122L27.8369 25.5412C28.0053 25.374 28.2886 25.3442 28.4991 25.4922L30.2243 23.0379ZM25.7229 23.4125L24.9713 24.1592L27.0855 26.2875L27.8372 25.5409L25.7229 23.4125ZM26.8309 23.9561C26.0079 23.4349 25.1711 22.7499 24.378 21.9583L22.2588 24.0817C23.179 25.0001 24.1855 25.8318 25.2259 26.4906L26.8309 23.9561ZM24.3791 21.9594L24.3757 21.956L22.2544 24.0774L22.2577 24.0807L24.3791 21.9594ZM24.3757 21.956C23.5857 21.166 22.9006 20.3279 22.379 19.5042L19.8445 21.1092C20.5029 22.1489 21.3345 23.1574 22.2544 24.0774L24.3757 21.956ZM22.1759 21.3638L22.9226 20.6121L20.7942 18.4979L20.0475 19.2496L22.1759 21.3638ZM22.9229 20.6118C24.1277 19.3982 24.2731 17.4915 23.2931 16.1057L20.8437 17.8377C20.9904 18.0453 20.9624 18.3285 20.7939 18.4982L22.9229 20.6118ZM23.2944 16.1074C22.7552 15.3427 22.2725 14.6509 21.8261 14.007L19.3607 15.7163C19.811 16.3658 20.2982 17.064 20.8424 17.836L23.2944 16.1074ZM21.8265 14.0077C20.5746 12.1999 18.0071 11.9916 16.4661 13.5327L18.5874 15.654C18.8197 15.4217 19.1855 15.4634 19.3603 15.7157L21.8265 14.0077ZM16.4661 13.5327L15.8011 14.1977L17.9224 16.319L18.5874 15.654L16.4661 13.5327ZM15.7985 14.2003C13.8791 16.129 13.87 18.6546 14.6751 20.9185C15.4705 23.155 17.1231 25.401 19.0289 27.3085L21.1512 25.1882C19.4187 23.4541 18.093 21.5759 17.5017 19.9132C16.9201 18.2779 17.116 17.1294 17.925 16.3164L15.7985 14.2003Z" fill="#003C6E" mask="url(#path-3-inside-1_356_1415)"/>
</svg>
